<svg width="213" height="284" viewBox="0 0 213 284" fill="none" xmlns="http://www.w3.org/2000/svg">
<path d="M167.172 57.2398L167.247 57.274L167.323 57.3033C170.97 58.7063 175.098 59.3773 179.661 59.3773C184.856 59.3773 189.319 57.6186 192.87 54.0674C196.536 50.3998 198.178 45.2189 198.178 38.9491C198.178 32.5914 195.547 27.1187 190.53 22.635C185.943 18.0632 180.08 14.357 173.014 11.473C165.931 8.32895 157.979 6.11946 149.177 4.82149C140.656 3.27432 132.13 2.5 123.602 2.5C106.995 2.5 91.2704 5.7465 76.4533 12.2469L76.4458 12.2502L76.4383 12.2535C61.8636 18.7617 48.9957 28.2595 37.8411 40.7142L37.839 40.7165C26.9222 52.936 18.2546 67.8421 11.806 85.3865L11.8004 85.4017L11.795 85.4171C5.58183 103.025 2.5 123.023 2.5 145.374C2.5 167.753 5.97158 187.54 12.9826 204.682L12.9878 204.695C19.9567 221.476 29.0194 235.614 40.2033 247.061L40.2234 247.081L40.244 247.102C51.6563 258.257 64.5168 266.708 78.8171 272.429L78.8242 272.432L78.8314 272.435C93.3381 278.135 107.885 281 122.458 281C135.583 281 147.482 279.713 158.135 277.114L158.163 277.107L158.19 277.1C168.757 274.264 177.854 270.764 185.445 266.575L185.458 266.568L185.47 266.561C193.287 262.131 199.31 257.222 203.393 251.78C207.683 246.146 210 240.416 210 234.633C210 228.37 208.731 223.262 205.409 220.232C202.31 217.159 198.208 215.731 193.39 215.731C189.277 215.731 185.15 217.056 181.044 219.52C177.283 221.777 172.752 224.296 167.441 227.078L167.419 227.09L167.397 227.102C162.499 229.797 156.435 232.28 149.174 234.534C142.118 236.725 133.234 237.855 122.458 237.855C113.675 237.855 104.861 236.029 96.0012 232.342C87.4591 228.43 79.7395 222.678 72.8431 215.044C65.9762 207.19 60.2765 197.186 55.7867 184.967C51.5844 172.841 49.4492 158.263 49.4492 141.178C49.4492 127.42 51.3245 114.71 55.0512 103.03C58.7951 91.2961 63.7654 81.2514 69.9341 72.8585C76.3581 64.2097 83.7255 57.5953 92.0249 52.9563L92.0353 52.9505L92.0457 52.9445C100.59 48.0608 109.445 45.645 118.644 45.645C128.203 45.645 135.719 46.4029 141.276 47.8527L141.325 47.8657L141.376 47.8766C147.113 49.1243 151.903 50.606 155.777 52.3014L155.802 52.3124L155.828 52.3228C160.126 54.0931 163.906 55.732 167.172 57.2398Z" fill="white" stroke="#5E3F4F" stroke-width="5"/>
</svg>
